<svg xmlns="http://www.w3.org/2000/svg" viewBox="0 0 200 200">
  <!-- Asteroid shape -->
  <path d="M 50 80 C 40 50, 80 30, 120 40 C 160 50, 170 90, 150 130 C 130 170, 70 160, 50 140 C 30 120, 60 110, 50 80 Z" fill="#94a3b8"/>
  
  <!-- Craters -->
  <circle cx="130" cy="80" r="15" fill="#64748b"/>
  <circle cx="125" cy="75" r="10" fill="#475569"/>
  
  <circle cx="70" cy="130" r="10" fill="#64748b"/>
  <circle cx="68" cy="128" r="6" fill="#475569"/>
  
  <circle cx="140" cy="120" r="8" fill="#64748b"/>
  <circle cx="138" cy="118" r="5" fill="#475569"/>
  
  <circle cx="60" cy="60" r="12" fill="#64748b"/>
  <circle cx="58" cy="58" r="8" fill="#475569"/>

  <!-- Cute Face -->
  <!-- Eyes -->
  <circle cx="90" cy="95" r="5" fill="#1e293b"/>
  <circle cx="110" cy="95" r="5" fill="#1e293b"/>
  
  <!-- Blush -->
  <ellipse cx="80" cy="100" rx="6" ry="3" fill="#f472b6" opacity="0.6"/>
  <ellipse cx="120" cy="100" rx="6" ry="3" fill="#f472b6" opacity="0.6"/>
  
  <!-- Smile -->
  <path d="M 95 102 Q 100 108 105 102" fill="none" stroke="#1e293b" stroke-width="3" stroke-linecap="round"/>
</svg>
